<svg xmlns="http://www.w3.org/2000/svg" width="1200" height="630" viewBox="0 0 1200 630" role="img" aria-label="Seattle Housing Buyer Lens preview">
  <defs>
    <linearGradient id="bg" x1="0%" y1="0%" x2="100%" y2="100%">
      <stop offset="0%" stop-color="#10233f"/>
      <stop offset="100%" stop-color="#1f5ea8"/>
    </linearGradient>
    <linearGradient id="card" x1="0%" y1="0%" x2="100%" y2="100%">
      <stop offset="0%" stop-color="#ffffff" stop-opacity="0.14"/>
      <stop offset="100%" stop-color="#ffffff" stop-opacity="0.04"/>
    </linearGradient>
  </defs>
  <rect width="1200" height="630" fill="url(#bg)"/>
  <circle cx="140" cy="96" r="180" fill="#8ed3ff" opacity="0.14"/>
  <circle cx="1080" cy="560" r="220" fill="#f3c66c" opacity="0.11"/>

  <rect x="66" y="74" width="1068" height="482" rx="24" fill="url(#card)" stroke="#9ac9ff" stroke-opacity="0.4"/>
  <text x="110" y="170" fill="#eaf4ff" font-size="62" font-family="Georgia, 'Times New Roman', serif" font-weight="700">
    Seattle Housing Buyer Lens
  </text>
  <text x="110" y="226" fill="#d4e7ff" font-size="30" font-family="Arial, Helvetica, sans-serif">
    Dynamic neighborhood, pricing, and sales-pressure dashboard
  </text>

  <rect x="110" y="272" width="980" height="232" rx="18" fill="#0a1731" fill-opacity="0.65" stroke="#9ac9ff" stroke-opacity="0.26"/>
  <text x="146" y="322" fill="#cbe2ff" font-size="24" font-family="Arial, Helvetica, sans-serif">Auto-filter defaults</text>
  <text x="146" y="360" fill="#f3fbff" font-size="34" font-family="Arial, Helvetica, sans-serif" font-weight="700">Single Family | $1.1M - $1.4M</text>
  <text x="146" y="416" fill="#cbe2ff" font-size="24" font-family="Arial, Helvetica, sans-serif">All metrics cross-filter the full dashboard</text>

  <rect x="146" y="444" width="176" height="18" rx="8" fill="#3ca0e8"/>
  <rect x="338" y="428" width="176" height="34" rx="8" fill="#5fb8ef"/>
  <rect x="530" y="398" width="176" height="64" rx="8" fill="#78c8f2"/>
  <rect x="722" y="408" width="176" height="54" rx="8" fill="#e5b250"/>
  <rect x="914" y="436" width="176" height="26" rx="8" fill="#cd8837"/>
</svg>
